<svg width="1024" height="1024" viewBox="0 0 1024 1024" fill="none" xmlns="http://www.w3.org/2000/svg">
<g clip-path="url(#clip0_1205_2297)">
<path d="M1006.5 0V1023.5H10.5V461H563.5V0H1006.5Z" fill="#EAE1D6" stroke="black"/>
<path d="M470.5 788.5H71.5L148.701 537.5L135.5 532.5C137.197 529.167 142.982 523 152.546 525C144.582 520.2 145.53 511.667 147 508L156.544 512L171 465H277H370L383 509L393 506.5C396.5 511 392.893 519.5 387.5 521.5C396 519.5 400.995 527 402.5 529L390.5 533.5L470.5 788.5Z" fill="white" stroke="black" stroke-width="2"/>
<path d="M994 789H908V908H994V789Z" fill="white" stroke="black" stroke-width="2"/>
<path d="M801 976H632V1024H801V976Z" fill="white" stroke="black" stroke-width="2"/>
<path d="M815 146V153H773.968C773.581 147.056 769.757 142.755 764.826 141.055L763.5 140.597V142V153H604V28.7785H711H712V27.7785V0H859V152.987L823.449 152.513C822.973 148.013 819.277 145.532 816.164 145.014L815 144.82V146Z" fill="white" stroke="black" stroke-width="2"/>
<path d="M759 112.327V153H709V75H758.981L758.519 99.5H748.5H747.112L747.552 100.817C748.172 102.675 749.484 105.294 751.498 107.593C753.351 109.709 755.849 111.609 759 112.327Z" stroke="black" stroke-width="2"/>
<path d="M681 251L561 297M561 251L681 297" stroke="black" stroke-width="2"/>
<path d="M763.5 142.5V153H759V113V112.279L758.316 112.051C754.826 110.888 751.982 108.305 750 105.542C749.013 104.166 748.255 102.766 747.747 101.515C747.439 100.755 747.232 100.074 747.115 99.5H757.5H758.443L758.498 98.5587L758.943 91H809V153H773.91C773.533 149.786 772.439 147.365 770.887 145.54C769.197 143.553 767.026 142.347 764.839 141.559L763.5 141.077V142.5Z" stroke="black" stroke-width="2"/>
<path d="M812.5 114V124H809V91H859V124H824.511C824.402 120.393 822.717 117.809 820.598 116.065C818.315 114.187 815.532 113.28 813.641 113.01L812.5 112.847V114Z" stroke="black" stroke-width="2"/>
<path d="M922 132.5V154H885V89H922V119V120H923H931.065C931.089 121.793 930.626 124.277 929.496 126.496C928.18 129.082 926.048 131.155 922.89 131.506L922 131.605V132.5Z" fill="white" stroke="black" stroke-width="2"/>
<path d="M813.413 124H809V153H815.375V144.783C817.99 145.267 823.221 147.587 823.221 153H860V124H825.183" stroke="black" stroke-width="2"/>
<path d="M866 144.5V153H859V91.642V46.0001H880H881V45.0001V38.7573C882.171 39.0883 883.555 39.6463 884.748 40.4627C886.366 41.5712 887.5 43.0531 887.5 45.0001V46.0001H888.5H922V90.642H889.744H888.744V91.642V153H875.933C875.62 150.657 874.243 148.681 872.699 147.172C870.931 145.445 868.825 144.207 867.401 143.584L866 142.971V144.5Z" fill="white" stroke="black" stroke-width="2"/>
<path d="M682 250H951V412H682V250Z" fill="white" stroke="black" stroke-width="2"/>
<path d="M911 622V634.001H649V412.001H655.5H656.5V411.001V402.181C658.291 402.532 660.758 403.236 662.957 404.44C665.682 405.931 667.788 408.066 668.003 411.072L668.069 412.001H669H951V634.001H921.947C921.632 629.422 920.424 626.512 918.65 624.575C916.773 622.525 914.382 621.712 912.305 621.048L911 620.63V622Z" fill="white" stroke="black" stroke-width="2"/>
<path d="M605 465V456.584C606.549 456.755 608.554 457.185 610.32 458.183C612.465 459.395 614.276 461.447 614.502 465.062L614.561 466H615.5H649V671H573V466H604H605V465Z" fill="white" stroke="black" stroke-width="2"/>
<path d="M232 968V958.068C234.769 958.285 237.819 958.804 240.541 959.98C243.593 961.3 246.193 963.426 247.572 966.871L248.251 968.569L249.314 967.081C251.664 963.791 256.155 958.402 265 958.021V968V969H266H354H355V968V958.137C357.87 958.553 361.711 959.454 365.037 960.961C368.887 962.705 371.669 965.08 372.006 968.11L373.926 968.379C374.625 966.668 376.195 964.045 378.586 961.864C380.76 959.882 383.57 958.299 387 958.038V968V969H388H418V1052H197V969H231H232V968Z" fill="white" stroke="black" stroke-width="2"/>
<path d="M30 622V559.013L47.9869 559.249L49 559.262V558.249V543.62C51.7287 544.008 55.3666 545.074 58.4824 547.153C61.9999 549.501 64.8141 553.105 65.0006 558.519L65.0334 559.472L65.9869 559.485L142.142 560.482L122.767 622H30Z" fill="white" stroke="black" stroke-width="2"/>
<path d="M393.413 514.178C392.949 516.251 391.971 518.486 390.328 520.502C393.519 520.706 395.809 521.742 397.5 523.094C399.342 524.568 400.411 526.382 401.133 527.607C401.212 527.74 401.286 527.867 401.357 527.986L401.962 528.993L400.871 529.429L390.473 533.581L425.918 642H517V466H368.379L382.686 509.761L391.712 507.042L392.442 506.823L392.847 507.469C393.796 508.982 394.003 511.541 393.413 514.178Z" fill="white" stroke="black" stroke-width="2"/>
<path d="M562 244H951V671H562V244Z" fill="white" stroke="black" stroke-width="2"/>
<path d="M562 0H1007V244H562V0Z" fill="white" stroke="black" stroke-width="2"/>
<path d="M807 837H660V923H807V837Z" fill="white" stroke="black" stroke-width="2"/>
<path d="M660 783H565V923H660V783Z" fill="white" stroke="black" stroke-width="2"/>
<line x1="612" y1="783" x2="612" y2="923" stroke="black" stroke-width="2"/>
<line x1="661" y1="873" x2="742" y2="873" stroke="black" stroke-width="2"/>
<line x1="743" y1="837" x2="743" y2="874" stroke="black" stroke-width="2"/>
<line x1="702" y1="837" x2="702" y2="874" stroke="black" stroke-width="2"/>
<rect x="562" y="672" width="388" height="53" fill="white" stroke="black" stroke-width="2"/>
<path d="M931 251L573 671M573 251L931 671" stroke="black" stroke-width="2"/>
<path d="M624 670L562 724M562 670L624 724" stroke="black" stroke-width="2"/>
<path d="M1002 12L573 244M573 12L1002 244" stroke="black" stroke-width="2"/>
<path d="M118 566L55 619M55 566L118 619" stroke="black" stroke-width="2"/>
<line x1="625" y1="673" x2="625" y2="724" stroke="black" stroke-width="2"/>
<rect x="936" y="245" width="70" height="519" fill="white" stroke="black" stroke-width="2"/>
</g>
<defs>
<clipPath id="clip0_1205_2297">
<rect width="1024" height="1024" fill="white"/>
</clipPath>
</defs>
</svg>
