<svg width="1024" height="1024" viewBox="0 0 1024 1024" fill="none" xmlns="http://www.w3.org/2000/svg">
<g clip-path="url(#clip0_1705_15771)">
<rect width="1024" height="1024" fill="#EAE1D6"/>
<path d="M951 593.5H993H999V604V605H1000H1011.12C1011.22 606.496 1010.89 608.484 1009.63 610.29C1008.15 612.415 1005.27 614.429 999.893 615.006L999 615.101V616V761H951V745.5V744.642L950.152 744.512C947.224 744.061 944.514 742.164 942.474 739.569C940.683 737.292 939.476 734.56 939.104 732H950H951V731V593.5ZM999 591.5H993H951V378H999V447V448H1000H1007.05C1007.06 449.463 1006.78 451.338 1005.93 452.995C1004.93 454.961 1003.12 456.647 999.89 457.006L999 457.105V458V591.5Z" fill="#ffffff" stroke="black" stroke-width="2"/>
<path d="M470.5 788.5H71.5L148.701 537.5L135.5 532.5C137.197 529.167 142.982 523 152.546 525C144.582 520.2 145.53 511.667 147 508L156.544 512L171 465H277H370L383 509L393 506.5C396.5 511 392.893 519.5 387.5 521.5C396 519.5 400.995 527 402.5 529L390.5 533.5L470.5 788.5Z" fill="#ffffff" stroke="black" stroke-width="2"/>
<rect x="913" y="761" width="86" height="119" fill="#ffffff" stroke="black" stroke-width="2"/>
<rect x="723" y="977" width="169" height="48" fill="#ffffff" stroke="black" stroke-width="2"/>
<path d="M326 165.782V155V154H325H-6V-7H424V154H339H338.105L338.006 154.89C337.652 158.075 335.383 160.727 332.565 162.692C330.288 164.281 327.788 165.323 326 165.782Z" fill="#ffffff" stroke="black" stroke-width="2"/>
<path d="M419 -3H529V73H419V-3Z" fill="#ffffff" stroke="black" stroke-width="2"/>
<path d="M572 146V154H445V71H483H484V70V59.0624C486.414 59.2741 489.622 59.9818 492.411 61.4919C495.598 63.2167 498.142 65.9233 498.504 70.0866L498.583 71H499.5H540H541V70V59.284C542.855 59.8418 545.237 60.9217 547.414 62.4975C550.098 64.4406 552.344 67.0437 553.022 70.2095L553.192 71H554H568.5H569.5V70V58.2507C570.083 58.4426 570.782 58.7396 571.562 59.1452C572.898 59.8391 574.388 60.8062 575.805 61.9624C578.687 64.3127 581.069 67.2772 581.512 70.1521L581.642 71H582.5H604V154H584.377C583.857 151.251 581.976 149.225 579.912 147.823C577.62 146.266 574.964 145.373 573.196 145.019L572 144.78V146Z" fill="#ffffff" stroke="black" stroke-width="2"/>
<path d="M419 71H455V157H419V71Z" fill="#ffffff" stroke="black" stroke-width="2"/>
<path d="M540.5 60V71H529V28H565V71H553.395C552.902 67.8618 550.983 65.2899 548.831 63.3562C546.463 61.228 543.702 59.7687 541.856 59.0655L540.5 58.5489V60Z" fill="#ffffff" stroke="black" stroke-width="2"/>
<path d="M529 -3H713V29H529V-3Z" fill="#ffffff" stroke="black" stroke-width="2"/>
<path d="M569.5 59.5V71H565V29H604V71H581.897C581.421 67.8708 579.601 65.2298 577.554 63.202C575.299 60.9692 572.671 59.3802 570.91 58.5881L569.5 57.9534V59.5Z" fill="#ffffff" stroke="black" stroke-width="2"/>
<path d="M815 146V153H773.968C773.581 147.056 769.757 142.755 764.826 141.055L763.5 140.597V142V153H604V28.7785H711H712V27.7785V0H859V152.987L823.449 152.513C822.973 148.013 819.277 145.532 816.164 145.014L815 144.82V146Z" fill="#ffffff" stroke="black" stroke-width="2"/>
<path d="M759 112.327V153H709V75H758.981L758.519 99.5H748.5H747.112L747.552 100.817C748.172 102.675 749.484 105.294 751.498 107.593C753.351 109.709 755.849 111.609 759 112.327Z" stroke="black" stroke-width="2"/>
<path d="M562 244H682V320H562V244Z" fill="#ffffff" stroke="black" stroke-width="2"/>
<path d="M681 251L561 297M561 251L681 297" stroke="black" stroke-width="2"/>
<path d="M576.5 403.5V412H563V298H604V412H588.903C588.431 408.738 586.568 406.48 584.416 405.001C582.092 403.404 579.398 402.685 577.6 402.505L576.5 402.395V403.5Z" fill="#ffffff" stroke="black" stroke-width="2"/>
<path d="M605 457.502V466.001H205V412.001H576H577V411.001V402.612C578.869 402.85 581.281 403.369 583.422 404.456C585.981 405.754 588.066 407.809 588.509 411.134L588.624 412.001H589.5H615.5H616.5V411.001V402.486C617.116 402.542 617.899 402.707 618.804 402.996C620.174 403.433 621.708 404.116 623.152 404.974C624.6 405.833 625.922 406.845 626.893 407.922C627.873 409.01 628.426 410.084 628.503 411.078L628.574 412.001H629.5H649V466.001H615.135C615.337 463.011 614.05 460.799 612.29 459.281C610.357 457.615 607.866 456.784 606.156 456.514L605 456.332V457.502Z" fill="#ffffff" stroke="black" stroke-width="2"/>
<path d="M616 403.5V412H604V298H645V412H629.373C628.821 409.211 626.758 407.109 624.528 405.629C622.038 403.977 619.144 402.962 617.222 402.525L616 402.247V403.5Z" fill="#ffffff" stroke="black" stroke-width="2"/>
<path d="M656 403V412H642V298H683V412H668.894C668.394 408.885 666.441 406.607 664.244 405.036C661.841 403.319 659.049 402.372 657.187 402.018L656 401.792V403Z" fill="#ffffff" stroke="black" stroke-width="2"/>
<path d="M763.5 142.5V153H759V113V112.279L758.316 112.051C754.826 110.888 751.982 108.305 750 105.542C749.013 104.166 748.255 102.766 747.747 101.515C747.439 100.755 747.232 100.074 747.115 99.5H757.5H758.443L758.498 98.5587L758.943 91H809V153H773.91C773.533 149.786 772.439 147.365 770.887 145.54C769.197 143.553 767.026 142.347 764.839 141.559L763.5 141.077V142.5Z" stroke="black" stroke-width="2"/>
<path d="M812.5 114V124H809V91H859V124H824.511C824.402 120.393 822.717 117.809 820.598 116.065C818.315 114.187 815.532 113.28 813.641 113.01L812.5 112.847V114Z" stroke="black" stroke-width="2"/>
<path d="M922 132.5V154H885V89H922V119V120H923H931.065C931.089 121.793 930.626 124.277 929.496 126.496C928.18 129.082 926.048 131.155 922.89 131.506L922 131.605V132.5Z" fill="#ffffff" stroke="black" stroke-width="2"/>
<path d="M930 120H922V46H1025V154H922V131.461C925.386 131.189 927.633 129.543 929.026 127.501C930.515 125.318 931 122.733 931 121V120H930Z" fill="#ffffff" stroke="black" stroke-width="2"/>
<path d="M859 0H1027V46H859V0Z" fill="#ffffff" stroke="black" stroke-width="2"/>
<path d="M813.413 124H809V153H815.375V144.783C817.99 145.267 823.221 147.587 823.221 153H860V124H825.183" stroke="black" stroke-width="2"/>
<path d="M866 144.5V153H859V91.6419V46H880H881V45V38.7572C882.171 39.0882 883.555 39.6462 884.748 40.4626C886.366 41.5711 887.5 43.053 887.5 45V46H888.5H922V90.6419H889.744H888.744V91.6419V153H875.933C875.62 150.657 874.243 148.681 872.699 147.172C870.931 145.445 868.825 144.207 867.401 143.584L866 142.971V144.5Z" fill="#ffffff" stroke="black" stroke-width="2"/>
<path d="M-6 305H115V483H-6V305Z" fill="#ffffff" stroke="black" stroke-width="2"/>
<path d="M334.978 197.991C336.796 196.371 338.131 194.313 338.435 192H563V412H204.5V354.887V353.887H203.5H115V239.669V192H177.5H326V200.819V202.047L327.203 201.798C330.109 201.197 332.898 199.843 334.978 197.991Z" fill="#ffffff" stroke="black" stroke-width="2"/>
<path d="M970 192.24V251H563V192.24H584H629H779H824.5H876H963.25H970Z" fill="#ffffff" stroke="black" stroke-width="2"/>
<path d="M682 250H951V412H682V250Z" fill="#ffffff" stroke="black" stroke-width="2"/>
<path d="M1009.93 295.5C1009.75 296.917 1009.18 298.829 1007.98 300.568C1006.49 302.721 1003.99 304.633 999.909 305.004L999 305.087V306V388H951V274H961.5H962.5V273V262.765C964.404 263.283 966.856 264.238 969.061 265.697C971.767 267.486 973.977 269.945 974.514 273.164L974.653 274H975.5H999V294.5V295.5H1000H1009.93Z" fill="#ffffff" stroke="black" stroke-width="2"/>
<path d="M110.505 306.5L205 306.005V346H88V306H95.5H96.5V305V294.404C98.4597 295.09 101.109 296.09 103.534 297.599C106.57 299.489 109.062 302.06 109.508 305.624L109.618 306.505L110.505 306.5Z" fill="#ffffff" stroke="black" stroke-width="2"/>
<path d="M115 346H205V466H115V346Z" fill="#ffffff" stroke="black" stroke-width="2"/>
<path d="M204 346L116 465M116 346L204 465" stroke="black" stroke-width="2"/>
<path d="M115 184.324V306.5H109.893C109.384 303.346 107.372 300.771 105.127 298.841C102.653 296.716 99.7677 295.261 97.8417 294.56L96.5 294.072V295.5V306.5H-6V153.5H115V175H105.5H104.417L104.503 176.08C104.702 178.569 106.205 180.439 108.268 181.777C110.118 182.976 112.485 183.798 115 184.324Z" fill="#ffffff" stroke="black" stroke-width="2"/>
<path d="M850.5 673.5V685H840V620H935V685H861.535C861.485 678.472 856.384 673.561 851.717 672.524L850.5 672.253V673.5Z" fill="#ffffff" stroke="black" stroke-width="2"/>
<path d="M794.5 673.26C797.857 674.316 803.034 677.705 803.471 685M793.696 672.019L792.5 671.78V673V685H783V634H843V685H804.472C803.986 676.286 797.182 672.717 793.696 672.019ZM794.5 685V674.311C797.568 675.375 802.049 678.491 802.468 685H794.5Z" fill="#ffffff" stroke="black" stroke-width="2"/>
<path d="M754 634H788V685H754V634Z" fill="#ffffff" stroke="black" stroke-width="2"/>
<path d="M718.663 693.424C717.351 694.621 715.797 695.359 714.5 695.745V686V685H713.5H707V634H756V685H722.5H721.446L721.501 686.053C721.684 689.531 720.364 691.873 718.663 693.424Z" fill="#ffffff" stroke="black" stroke-width="2"/>
<path d="M653.5 685H649V634H709V685H672.5H671.6L671.505 685.895C671.059 690.133 667.902 692.906 664.141 694.656C660.932 696.149 657.468 696.802 655.417 696.96L654.497 685.917L654.42 685H653.5Z" fill="#ffffff" stroke="black" stroke-width="2"/>
<path d="M911 622V634.001H649V412.001H655.5H656.5V411.001V402.181C658.291 402.532 660.758 403.236 662.957 404.44C665.682 405.931 667.788 408.066 668.003 411.072L668.069 412.001H669H951V634.001H921.947C921.632 629.422 920.424 626.512 918.65 624.575C916.773 622.525 914.382 621.712 912.305 621.048L911 620.63V622Z" fill="#ffffff" stroke="black" stroke-width="2"/>
<path d="M605 465V456.584C606.549 456.755 608.554 457.185 610.32 458.183C612.465 459.395 614.276 461.447 614.502 465.062L614.561 466H615.5L649 466V671H573V466L604 466H605V465Z" fill="#ffffff" stroke="black" stroke-width="2"/>
<path d="M232 968V958.068C234.769 958.285 237.819 958.804 240.541 959.98C243.593 961.3 246.193 963.426 247.572 966.871L248.251 968.569L249.314 967.081C251.664 963.791 256.155 958.402 265 958.021V968V969H266H354H355V968V958.137C357.87 958.553 361.711 959.454 365.037 960.961C368.887 962.705 371.669 965.08 372.006 968.11L373.926 968.379C374.625 966.668 376.195 964.045 378.586 961.864C380.76 959.882 383.57 958.299 387 958.038V968V969H388H418V1052H197V969H231H232V968Z" fill="#ffffff" stroke="black" stroke-width="2"/>
<path d="M628.5 718.5V726H573V669H583.5H584.5V668V657.001C586.477 657.885 588.953 659.235 591.111 660.914C593.844 663.042 595.832 665.515 596.002 668.067L596.064 669H597H649V726H636.854C636.273 722.528 635.517 720.495 634.321 719.294C633.17 718.138 631.694 717.876 630.273 717.624C630.076 717.589 629.881 717.555 629.687 717.518L628.5 717.292V718.5Z" fill="#ffffff" stroke="black" stroke-width="2"/>
<path d="M762 684.005V726H649V684H656.067L656.502 690.232L656.581 691.363L657.693 691.144C660.065 690.677 661.6 689.653 662.488 688.138C663.173 686.968 663.411 685.603 663.478 684.222H714.065L714.502 690.741L714.565 691.674H715.5C717.022 691.674 718.672 691.051 719.933 689.642C721.046 688.398 721.803 686.603 721.967 684.216L762 684.005Z" fill="#ffffff" stroke="black" stroke-width="2"/>
<path d="M844.423 691.5C844.22 692.874 843.594 694.595 842.257 696.081C840.597 697.925 837.758 699.5 833 699.5H832V700.5V726H821.464C821.109 721.123 818.169 717.422 814.222 716.525L813 716.247V717.5V726H758V684.5H763H764V683.5V673.617C765.346 673.844 767.024 674.405 768.53 675.557C770.428 677.009 772.128 679.457 772.504 683.591L772.587 684.5H773.5H792.5H793.5V683.5V673.169C794.975 673.465 797.018 674.106 798.869 675.385C801.208 677.002 803.27 679.648 803.501 684.053L803.551 685H804.5H832V690.5V691.5H833H844.423Z" fill="#ffffff" stroke="black" stroke-width="2"/>
<path d="M850.745 684.001V672.672C852.412 672.972 854.561 673.536 856.505 674.832C858.88 676.414 861.033 679.143 861.505 684.095L861.591 685.001H862.5H908V726.001H832V699.986C836.152 699.868 839.014 699.002 840.863 697.612C842.914 696.07 843.595 693.98 843.499 691.952L843.454 691H842.5H832V685.001H849.745H850.745V684.001Z" fill="#ffffff" stroke="black" stroke-width="2"/>
<path d="M30 622V559.013L47.9869 559.249L49 559.262V558.249V543.62C51.7287 544.008 55.3666 545.074 58.4824 547.153C61.9999 549.501 64.8141 553.105 65.0006 558.519L65.0334 559.472L65.9869 559.485L142.142 560.482L122.767 622H30Z" fill="#ffffff" stroke="black" stroke-width="2"/>
<path d="M393.413 514.178C392.949 516.251 391.971 518.486 390.328 520.502C393.519 520.706 395.809 521.742 397.5 523.094C399.342 524.568 400.411 526.382 401.133 527.607C401.212 527.74 401.286 527.867 401.357 527.986L401.962 528.993L400.871 529.429L390.473 533.581L425.918 642H517V466H368.379L382.686 509.761L391.712 507.042L392.442 506.823L392.847 507.469C393.796 508.982 394.003 511.541 393.413 514.178Z" fill="#ffffff" stroke="black" stroke-width="2"/>
<path d="M509.176 760L459.245 584.5H407.349L460.742 760H509.176Z" fill="#ffffff" stroke="black" stroke-width="2"/>
</g>
</svg>
