<svg width="1024" height="1024" viewBox="0 0 1024 1024" fill="none" xmlns="http://www.w3.org/2000/svg">
<g clip-path="url(#clip0_1705_16206)">
<rect width="1024" height="1024" fill="#EAE1D6"/>
<path d="M124.065 614.998H82V600.498V599.498H81C78.778 599.498 75.5067 600.349 72.7298 602.856C70.0685 605.259 67.936 609.115 67.5479 614.998H64V540.998H68.5H69.5V539.998V532.498V524.011C70.3742 524.115 71.4489 524.454 72.6435 525.046C74.2633 525.848 75.9997 527.065 77.5831 528.583C80.7755 531.642 83.1835 535.756 83.0009 539.955L82.9556 540.998H84H147.632L124.065 614.998Z" fill="#ffffff" stroke="black" stroke-width="2"/>
<path d="M478 543H477V542V454H379.317L417.259 590H477V556V555H478C481.795 555 484.521 552.785 486.347 549.957C487.886 547.575 488.705 544.871 488.933 543H478Z" fill="#ffffff" stroke="black" stroke-width="2"/>
<path d="M476 624V590H417.314L440.246 673H476V638V637.074L476.923 637.003C481.798 636.628 484.595 634.392 486.171 631.805C487.55 629.542 488.024 626.956 488.035 625H477H476V624Z" fill="#ffffff" stroke="black" stroke-width="2"/>
<path d="M69.5 525.5V541H64V501H128V541H83.4779C83 530.3 74.8983 525.569 70.7425 524.53L69.5 524.219V525.5Z" fill="#ffffff" stroke="black" stroke-width="2"/>
<path d="M216 855.5V830H325V854V855H326C330.184 855 335.118 856.556 338.995 859.144C342.545 861.515 345.025 864.618 345.439 868H326H215H198.412C200.234 863.501 205.405 856.5 215 856.5H216V855.5Z" fill="#ffffff" stroke="black" stroke-width="2"/>
<path d="M117 455H174.64L162.765 493H117V455Z" fill="#ffffff" stroke="black" stroke-width="2"/>
<path d="M114 367V354H118V417.5H103H101.802L102.016 418.679C102.735 422.631 106.992 430.01 118 430.248V439H60V354H100.065C100.952 363.55 108.877 367.298 112.829 367.985L114 368.189V367Z" fill="#ffffff" stroke="black" stroke-width="2"/>
<path d="M120 302H232V355H120V302Z" fill="#ffffff" stroke="black" stroke-width="2"/>
<path d="M214.464 194H232V239H134V194H200.5V210V211.251L201.72 210.975C207.141 209.751 213.881 204.624 214.464 194Z" fill="#ffffff" stroke="black" stroke-width="2"/>
<path d="M17.1583 205.56C13.3183 206.957 5.95693 212.343 5.52033 223H-7V141H59V223H18.5V206.5V205.072L17.1583 205.56Z" fill="#ffffff" stroke="black" stroke-width="2"/>
<path d="M261 194H359V239H261V194Z" fill="#ffffff" stroke="black" stroke-width="2"/>
<path d="M271 252.5V261H261V239H359V261H281.959C281.5 255.493 277.273 251.5 272 251.5H271V252.5Z" fill="#ffffff" stroke="black" stroke-width="2"/>
<path d="M345.118 210.5H358H359V209.5V194H364H365V193V175.306C370.199 176.93 378.651 182.192 379.001 193.032L379.032 194H380H412V261H359V223V222.168L358.182 222.017C348.892 220.296 345.745 214.095 345.118 210.5Z" fill="#ffffff" stroke="black" stroke-width="2"/>
<path d="M452.5 229.5H461.382C461.055 231.952 460.333 234.771 459.009 237.062C457.502 239.671 455.286 241.5 452 241.5H451V242.5V276H412V220H451.051L451.501 228.553L451.551 229.5H452.5Z" fill="#ffffff" stroke="black" stroke-width="2"/>
<path d="M466.578 355H451V261H492V355H479V340.5V339.413L477.917 339.503C475.661 339.691 472.989 340.787 470.788 343.378C468.706 345.828 467.092 349.557 466.578 355Z" fill="#ffffff" stroke="black" stroke-width="2"/>
<path d="M513.812 345.167C512.193 347.426 511.152 350.627 511.015 355H492V261H542V355H521.5V342V340.789L520.311 341.018C517.925 341.477 515.563 342.726 513.812 345.167Z" fill="#ffffff" stroke="black" stroke-width="2"/>
<path d="M497.5 127.582C498.538 127.738 499.791 128.119 501.155 128.713C502.975 129.507 504.918 130.651 506.698 132.039C510.315 134.859 513 138.476 513 142V143H514H542V261H492V143H496.5H497.5V142V127.582Z" fill="#ffffff" stroke="black" stroke-width="2"/>
<path d="M553.603 355H536V140H577V355H565V342V341H564C561.183 341 558.755 342.15 556.939 344.665C555.272 346.973 554.153 350.384 553.603 355Z" fill="#ffffff" stroke="black" stroke-width="2"/>
<path d="M460 230H451V220H467.5H468.5V219V208.4C470.012 209 471.869 210 473.505 211.428C475.631 213.284 477.321 215.801 477.502 219.055L477.554 220H478.5H492V261H451V241.959C454.421 241.676 456.807 239.946 458.376 237.849C460.065 235.591 460.814 232.907 460.995 231.1L461.105 230H460Z" fill="#ffffff" stroke="black" stroke-width="2"/>
<path d="M430.999 193.042C431.335 184.975 437.512 181.064 441.5 179.798V193V194H442.5H446V220H412V194H430H430.959L430.999 193.042Z" fill="#ffffff" stroke="black" stroke-width="2"/>
<path d="M271.5 283.5H261V278H300V355H261V295.357C265.101 294.649 267.826 293.06 269.604 291.096C271.493 289.009 272.223 286.596 272.491 284.635L272.646 283.5H271.5Z" fill="#ffffff" stroke="black" stroke-width="2"/>
<path d="M310.722 292.475C314.526 291.61 321.984 287.519 322.474 278H359V355H300V278H309.5V291.5V292.753L310.722 292.475Z" fill="#ffffff" stroke="black" stroke-width="2"/>
<path d="M81.967 599.04L81.5005 613.969L81.4683 615H82.5H90V639H65H39V500V484.917C42.9847 486.578 49.1624 491.241 49.5007 500.038L49.5377 501H50.5H64V614V615H65H66.5H67.4592L67.4991 614.042C67.7362 608.352 70.2071 604.625 73.2899 602.298C76.0404 600.222 79.3068 599.243 81.967 599.04Z" fill="#ffffff" stroke="black" stroke-width="2"/>
<path d="M901 585.5H884V550H970V636H884V601.977C889.082 601.74 893.446 599.72 896.599 596.937C899.936 593.993 902 590.114 902 586.5V585.5H901Z" fill="#ffffff" stroke="black" stroke-width="2"/>
<rect x="910" y="636" width="60" height="86" fill="#ffffff" stroke="black" stroke-width="2"/>
<path d="M954.426 209.5C954.255 210.704 953.794 212.081 953.067 213.528C952.137 215.382 950.802 217.289 949.205 219.007C945.976 222.479 941.848 225 938 225H937V226V354H641V203H937V208.5V209.5H938H954.426Z" fill="#ffffff" stroke="black" stroke-width="2"/>
<path d="M804.988 422H692V354H828V422H820V405V403.708L818.749 404.032C814.134 405.229 805.113 410.473 804.988 422Z" fill="#ffffff" stroke="black" stroke-width="2"/>
<path d="M832.55 422H828V354H872V422H847V405.5V404.27L845.796 404.521C841.543 405.407 833.36 410.167 832.55 422Z" fill="#ffffff" stroke="black" stroke-width="2"/>
<rect x="641" y="354" width="51" height="68" fill="#ffffff" stroke="black" stroke-width="2"/>
<path d="M691 354L642.5 420M642.5 354L691 420" stroke="black" stroke-width="2"/>
<rect x="884" y="636" width="26" height="86" fill="#ffffff" stroke="black" stroke-width="2"/>
<path d="M910 636L885 723M885 636L910 723" stroke="black" stroke-width="2"/>
<path d="M872 354H905V404.23C900.73 405.54 893.78 410.553 893.047 422H872V354Z" fill="#ffffff" stroke="black" stroke-width="2"/>
<path d="M905 354H937V402.694C931.935 403.97 923.552 409.281 923.488 422H905V354Z" fill="#ffffff" stroke="black" stroke-width="2"/>
<rect x="937" y="267" width="48" height="64" fill="#ffffff" stroke="black" stroke-width="2"/>
<path d="M953 209.5H937V203H985V267H937V225.474C946.982 224.957 951.495 216.711 953.923 210.885L954.5 209.5H953Z" fill="#ffffff" stroke="black" stroke-width="2"/>
<path d="M56 830.5L179.5 439.5H375L485 830.5H56Z" fill="#ffffff" stroke="black" stroke-width="2"/>
<path d="M901.5 845H884V782H970V868H884V862.941C889.457 862.47 893.629 859.722 896.624 856.464C899.779 853.032 901.673 848.99 902.46 846.279L902.832 845H901.5Z" fill="#ffffff" stroke="black" stroke-width="2"/>
<path d="M497.5 142.501L287 142.725V133.5V132.5H286C283.077 132.5 280.955 133.172 279.169 134.672C277.849 135.781 276.762 137.306 275.654 139.19C272.96 133.791 267.382 132.5 264.5 132.5H263.5V133.5V142.727L-18 142.999V-15H1040V143H512.966C512.41 134.925 505.158 130.165 498.816 128.051L497.5 127.613V129V133.5V139V142.501Z" fill="#ffffff" stroke="black" stroke-width="2"/>
</g>
</svg>
