<svg width="1003" height="922" viewBox="0 0 1003 922" fill="none" xmlns="http://www.w3.org/2000/svg">
<g clip-path="url(#clip0_1070_1724)">
<path d="M1002.96 2H0V921.995H1002.96V2Z" fill="#EAE1D6" stroke="black" stroke-width="2"/>
<path d="M139.942 2H0V104.659H139.942V2Z" fill="white" stroke="black" stroke-width="2"/>
<path d="M229.211 2H139.942V137.479H229.211V2Z" fill="white" stroke="black" stroke-width="2"/>
<path d="M327.407 2H229.211V137.479H327.407V2Z" fill="white" stroke="black" stroke-width="2"/>
<path d="M409.324 2H327.407V56.8741H409.324V2Z" fill="white" stroke="black" stroke-width="2"/>
<path d="M409.324 56.8741H346.836V96.783H409.324V56.8741Z" fill="white" stroke="black" stroke-width="2"/>
<path d="M409.324 96.783H346.836V137.479H409.324V96.783Z" fill="white" stroke="black" stroke-width="2"/>
<path d="M503.319 2H409.324V137.479H503.319V2Z" fill="white" stroke="black" stroke-width="2"/>
<path d="M683.17 2H585.499V137.479H683.17V2Z" fill="white" stroke="black" stroke-width="2"/>
<path d="M765.088 2H683.17V137.479H765.088V2Z" fill="white" stroke="black" stroke-width="2"/>
<path d="M864.334 2V107.022H836.503V137.479H765.088V2H864.334Z" fill="white" stroke="black" stroke-width="2"/>
<path d="M1002.96 2H864.334V136.954H1002.96V2Z" fill="white" stroke="black" stroke-width="2"/>
<path d="M1002.96 136.954H864.334V234.099H1002.96V136.954Z" fill="white" stroke="black" stroke-width="2"/>
<path d="M1002.96 234.099H864.334V318.642H1002.96V234.099Z" fill="white" stroke="black" stroke-width="2"/>
<path d="M1002.96 318.642H864.334V415.788H1002.96V318.642Z" fill="white" stroke="black" stroke-width="2"/>
<path d="M1002.96 415.788H864.334V500.331H1002.96V415.788Z" fill="white" stroke="black" stroke-width="2"/>
<path d="M1002.96 500.331H864.334V595.901H1002.96V500.331Z" fill="white" stroke="black" stroke-width="2"/>
<path d="M1002.96 778.64H863.809V921.995H1002.96V778.64Z" fill="white" stroke="black" stroke-width="2"/>
<path d="M863.809 778.64H772.964V921.995H863.809V778.64Z" fill="white" stroke="black" stroke-width="2"/>
<path d="M772.964 778.64H680.545V921.995H772.964V778.64Z" fill="white" stroke="black" stroke-width="2"/>
<path d="M680.545 778.64H587.6V921.995H680.545V778.64Z" fill="white" stroke="black" stroke-width="2"/>
<path d="M502.007 778.115H414.838V921.995H502.007V778.115Z" fill="white" stroke="black" stroke-width="2"/>
<path d="M414.838 778.115H316.117V921.995H414.838V778.115Z" fill="white" stroke="black" stroke-width="2"/>
<path d="M316.117 778.115H233.15V921.995H316.117V778.115Z" fill="white" stroke="black" stroke-width="2"/>
<path d="M233.15 778.115H133.903V921.995H233.15V778.115Z" fill="white" stroke="black" stroke-width="2"/>
<path d="M133.903 778.115H0V921.995H133.903V778.115Z" fill="white" stroke="black" stroke-width="2"/>
<path d="M74.0407 731.38H0V778.115H74.0407V731.38Z" fill="white" stroke="black" stroke-width="2"/>
<path d="M94.52 684.645H0V731.38H94.52V684.645Z" fill="white" stroke="black" stroke-width="2"/>
<path d="M140.205 684.645H94.52V743.983H140.205V684.645Z" fill="white" stroke="black" stroke-width="2"/>
<path d="M140.205 593.276H0V684.645H140.205V593.276Z" fill="white" stroke="black" stroke-width="2"/>
<path d="M140.205 500.856H0V593.276H140.205V500.856Z" fill="white" stroke="black" stroke-width="2"/>
<path d="M140.205 412.637H0V500.856H140.205V412.637Z" fill="white" stroke="black" stroke-width="2"/>
<path d="M140.205 320.743H0V412.637H140.205V320.743Z" fill="white" stroke="black" stroke-width="2"/>
<path d="M140.205 230.424H0V320.743H140.205V230.424Z" fill="white" stroke="black" stroke-width="2"/>
<path d="M114.474 104.659H0V140.104H114.474V104.659Z" fill="white" stroke="black" stroke-width="2"/>
<path d="M140.205 230.424V161.109H114.474V140.104H0V230.424H140.205Z" fill="white" stroke="black" stroke-width="2"/>
<path d="M892.264 778.49V726.051H864.886L863.832 595.49H1002.83V778.49H892.264Z" fill="white" stroke="black" stroke-width="2"/>
<path d="M285.661 192.615H194.291V325.469H285.661V192.615Z" fill="white" stroke="black" stroke-width="2"/>
<path d="M449.496 192.615H285.661V283.46H449.496V192.615Z" fill="white" stroke="black" stroke-width="2"/>
<mask id="mask0_1070_1724" style="mask-type:luminance" maskUnits="userSpaceOnUse" x="285" y="192" width="34" height="39">
<path d="M285.832 192.49H318.832V230.49H285.832V192.49Z" fill="white"/>
</mask>
<g mask="url(#mask0_1070_1724)">
<path d="M318.832 192.49H316.832V230.49H318.832H320.832V192.49H318.832Z" fill="black"/>
</g>
<path d="M317.832 230.49H285.832V325.49H317.832V230.49Z" fill="white" stroke="black" stroke-width="2"/>
<path d="M350.775 283.46H317.693V318.117H350.775V283.46Z" fill="white" stroke="black" stroke-width="2"/>
<path d="M380.181 283.46H350.775V318.117H380.181V283.46Z" fill="white" stroke="black" stroke-width="2"/>
<path d="M503.057 283.46H449.495V323.893H503.057V283.46Z" fill="white" stroke="black" stroke-width="2"/>
<path d="M503.057 247.227H449.495V283.46H503.057V247.227Z" fill="white" stroke="black" stroke-width="2"/>
<path d="M503.057 208.369H449.495V247.227H503.057V208.369Z" fill="white" stroke="black" stroke-width="2"/>
<path d="M449.496 283.46H380.181V323.893H449.496V283.46Z" fill="white" stroke="black" stroke-width="2"/>
<path d="M448.97 375.354H412.213V663.115H448.97V375.354Z" fill="white" stroke="black" stroke-width="2"/>
<path d="M504.632 619.006H448.97V663.115H504.632V619.006Z" fill="white" stroke="black" stroke-width="2"/>
<path d="M412.213 375.354H319.268V505.057H412.213V375.354Z" fill="white" stroke="black" stroke-width="2"/>
<path d="M319.268 375.354H269.382V459.372H319.268V375.354Z" fill="white" stroke="black" stroke-width="2"/>
<path d="M319.268 459.372H269.382V505.057H319.268V459.372Z" fill="white" stroke="black" stroke-width="2"/>
<path d="M253.629 418.413H203.218V459.372H253.629V418.413Z" fill="white" stroke="black" stroke-width="2"/>
<path d="M253.629 375.354H203.218V418.414H253.629V375.354Z" fill="white" stroke="black" stroke-width="2"/>
<path d="M269.382 505.319V476.701H254.154L253.629 459.372H203.218V505.319H269.382Z" fill="white" stroke="black" stroke-width="2"/>
<path d="M320.843 623.732H267.807V720.353H320.843V623.732Z" fill="white" stroke="black" stroke-width="2"/>
<path d="M267.807 623.732H203.218V720.353H267.807V623.732Z" fill="white" stroke="black" stroke-width="2"/>
<path d="M203.218 505.319V590.125H280.935V579.623H319.53V505.057L203.218 505.319Z" fill="white" stroke="black" stroke-width="2"/>
<path d="M319.53 505.057V607.454H345.523V622.944H412.213V505.057H319.53Z" fill="white" stroke="black" stroke-width="2"/>
<path d="M280.935 590.125H203.218V623.732H280.935V590.125Z" fill="white" stroke="black" stroke-width="2"/>
<path d="M382.102 684.511H320.843V720.353H382.102V684.511Z" fill="white" stroke="black" stroke-width="2"/>
<path d="M412.213 663.115V701.592H468.617V719.415H505.005L504.632 663.115H412.213Z" fill="white" stroke="black" stroke-width="2"/>
<path d="M382.102 684.511V622.944H345.523V647.752H320.843V684.511H382.102Z" fill="white" stroke="black" stroke-width="2"/>
<path d="M680.635 193.268H585.58V324.712H680.635V193.268Z" fill="white" stroke="black" stroke-width="2"/>
<path d="M733.581 193.268H680.635V324.712H733.581V193.268Z" fill="white" stroke="black" stroke-width="2"/>
<path d="M804.209 193.268H733.581V296.325H804.209V193.268Z" fill="white" stroke="black" stroke-width="2"/>
<path d="M804.209 296.325H733.581V324.712H804.209V296.325Z" fill="white" stroke="black" stroke-width="2"/>
<path d="M803.683 381.656H746.184V441.518H803.683V381.656Z" fill="white" stroke="black" stroke-width="2"/>
<path d="M585.582 324.708V498.24H764.926V441.521H746.176V381.646H764.926V324.708H585.582Z" fill="white" stroke="black" stroke-width="2"/>
<path d="M806.046 498.23H683.17V624.257H806.046V498.23Z" fill="white" stroke="black" stroke-width="2"/>
<path d="M736.731 624.257H683.17V720.09H736.731V624.257Z" fill="white" stroke="black" stroke-width="2"/>
<path d="M806.046 624.257H736.732V720.09H806.046V624.257Z" fill="white" stroke="black" stroke-width="2"/>
<path d="M683.17 624.257H641.686V720.09H683.17V624.257Z" fill="white" stroke="black" stroke-width="2"/>
<path d="M585.58 324.712V593.54" stroke="black" stroke-width="2"/>
<path d="M622.339 593.54H585.58V657.034H622.339V593.54Z" fill="white" stroke="black" stroke-width="2"/>
<path d="M622.339 657.034H585.58V689.371H622.339V657.034Z" fill="white" stroke="black" stroke-width="2"/>
<path d="M622.339 689.371H585.58V720.09H622.339V689.371Z" fill="white" stroke="black" stroke-width="2"/>
<path d="M641.686 624.257H622.339" stroke="black" stroke-width="2"/>
<path d="M683.17 498.23H585.58" stroke="black" stroke-width="2"/>
<path d="M746.184 441.518L712.568 498.23" stroke="black" stroke-width="2"/>
<path d="M746.184 381.656L711.825 324.712" stroke="black" stroke-width="2"/>
<path d="M503.057 374.304V562.35" stroke="black" stroke-width="2"/>
<path d="M280.926 579.615V607.458V623.74H319.52H320.832V647.74H345.52V607.458H319.52V579.615H280.926Z" fill="white" stroke="black" stroke-width="2"/>
<path d="M585.582 498.24V593.552H622.332V624.271H683.176V593.552V498.24H585.582Z" fill="white" stroke="black" stroke-width="2"/>
</g>
<defs>
<clipPath id="clip0_1070_1724">
<rect width="1003" height="922" fill="white"/>
</clipPath>
</defs>
</svg>
