<svg width="1005" height="922" viewBox="0 0 1005 922" fill="none" xmlns="http://www.w3.org/2000/svg">
<path d="M1.01135 920.995H1003.97V1H1.01135V920.995Z" fill="#EAE1D6" stroke="black" stroke-width="2"/>
<path d="M944.127 645.464H1003.97V596.844H944.127V645.464Z" fill="white" stroke="black" stroke-width="2"/>
<path d="M944.127 596.844H1003.97V551.733H944.127V596.844Z" fill="white" stroke="black" stroke-width="2"/>
<path d="M920.487 551.733H1003.97V436.949H920.487V551.733Z" fill="white" stroke="black" stroke-width="2"/>
<path d="M862.646 513.137H920.487V457.5H862.646V513.137Z" fill="white" stroke="black" stroke-width="2"/>
<path d="M862.646 551.733H920.487V513.137H862.646V551.733Z" fill="white" stroke="black" stroke-width="2"/>
<path d="M863.149 436.949H1003.97V325.174H863.149V436.949Z" fill="white" stroke="black" stroke-width="2"/>
<path d="M863.149 325.174H1003.97V233.447H863.149V325.174Z" fill="white" stroke="black" stroke-width="2"/>
<path d="M863.149 233.447H1003.97V141.721H863.149V233.447Z" fill="white" stroke="black" stroke-width="2"/>
<path d="M863.149 141.721H1003.97V0.999985H863.149V141.721Z" fill="white" stroke="black" stroke-width="2"/>
<path d="M680.571 141.721H776.135V1.00005H680.571V141.721Z" fill="white" stroke="black" stroke-width="2"/>
<path d="M591.042 141.721H680.571V1.00005H591.042V141.721Z" fill="white" stroke="black" stroke-width="2"/>
<path d="M500.005 141.721H591.042V1.00005H500.005V141.721Z" fill="white" stroke="black" stroke-width="2"/>
<path d="M323.844 149.49H499.844V1.48975H323.844V149.49Z" fill="white" stroke="black" stroke-width="2"/>
<path d="M1.01131 234.45H140.884V1H1.01131V234.45Z" fill="white" stroke="black" stroke-width="2"/>
<path d="M1.01131 327.179H140.884V234.45H1.01131V327.179Z" fill="white" stroke="black" stroke-width="2"/>
<path d="M1.01135 484.567H61.4152V438.453H1.01135V484.567Z" fill="white" stroke="black" stroke-width="2"/>
<path d="M1.01135 573.286H61.4152V484.567H1.01135V573.286Z" fill="white" stroke="black" stroke-width="2"/>
<path d="M1.01135 619.901H61.4152V573.286H1.01135V619.901Z" fill="white" stroke="black" stroke-width="2"/>
<path d="M1.01135 664.511H61.4152V619.901H1.01135V664.511Z" fill="white" stroke="black" stroke-width="2"/>
<path d="M1.01135 711.126H61.4152V664.511H1.01135V711.126Z" fill="white" stroke="black" stroke-width="2"/>
<path d="M1.01131 754.734H55.8825V711.126H1.01131V754.734Z" fill="white" stroke="black" stroke-width="2"/>
<path d="M1.01131 799.845H55.8825V754.733H1.01131V799.845Z" fill="white" stroke="black" stroke-width="2"/>
<path d="M1.01131 845.958H55.8825V799.845H1.01131V845.958Z" fill="white" stroke="black" stroke-width="2"/>
<path d="M48.841 920.995H95.1142V859.993H48.841V920.995Z" fill="white" stroke="black" stroke-width="2"/>
<path d="M95.1143 920.995H142.393V859.993H95.1143V920.995Z" fill="white" stroke="black" stroke-width="2"/>
<path d="M142.393 920.995H186.655V859.993H142.393V920.995Z" fill="white" stroke="black" stroke-width="2"/>
<path d="M186.655 920.995H230.916V859.993H186.655V920.995Z" fill="white" stroke="black" stroke-width="2"/>
<path d="M230.916 920.995H275.177V859.993H230.916V920.995Z" fill="white" stroke="black" stroke-width="2"/>
<path d="M275.177 920.995H320.445V859.993H275.177V920.995Z" fill="white" stroke="black" stroke-width="2"/>
<path d="M84.5518 834.931H194.702V779.294H84.5518V834.931Z" fill="white" stroke="black" stroke-width="2"/>
<path d="M84.5516 779.294H194.702V685.563H84.5516V779.294Z" fill="white" stroke="black" stroke-width="2"/>
<path d="M84.5517 685.563H139.879V664.01H84.5517V685.563Z" fill="white" stroke="black" stroke-width="2"/>
<path d="M84.5517 664.01H139.879V620.903H84.5517V664.01Z" fill="white" stroke="black" stroke-width="2"/>
<path d="M194.702 773.78H379.292V723.155H194.702V773.78Z" fill="white" stroke="black" stroke-width="2"/>
<path d="M194.702 723.156H265.621V626.918H194.702V723.156Z" fill="white" stroke="black" stroke-width="2"/>
<path d="M265.621 723.156H318.936V626.918H265.621V723.156Z" fill="white" stroke="black" stroke-width="2"/>
<path d="M318.936 723.156H379.292V686.565H318.936V723.156Z" fill="white" stroke="black" stroke-width="2"/>
<path d="M318.936 686.565H379.292V626.918H318.936V686.565Z" fill="white" stroke="black" stroke-width="2"/>
<path d="M318.936 649.474H345.09V626.918H318.936V649.474Z" fill="white" stroke="black" stroke-width="2"/>
<path d="M194.702 834.931H233.431V773.78H194.702V834.931Z" fill="white" stroke="black" stroke-width="2"/>
<path d="M233.431 834.931H275.177V773.78H233.431V834.931Z" fill="white" stroke="black" stroke-width="2"/>
<path d="M363.197 834.931H275.177V773.78H379.292V804.356L363.197 834.931Z" fill="white" stroke="black" stroke-width="2"/>
<path d="M363.686 920.994V875.034H353.634V859.993H320.43V920.994H363.686Z" fill="white" stroke="black" stroke-width="2"/>
<path d="M1003.97 920.994V731.167H825.439V802.867L808.822 818.405V920.994H1003.97Z" fill="white" stroke="black" stroke-width="2"/>
<path d="M863.652 814.38H834.486L824.937 803.337L825.439 752.227H863.652V814.38Z" fill="white" stroke="black" stroke-width="2"/>
<path d="M718.916 872.683L690.968 885.047L650.446 884.88L635.488 852.749L697.42 825.013L718.916 872.683Z" fill="white" stroke="black" stroke-width="2"/>
<path d="M697.42 825.013L585.886 874.963L585.86 833.263L597.366 833.35L683.814 794.841L697.42 825.013Z" fill="white" stroke="black" stroke-width="2"/>
<path d="M678.056 920.995V884.994L650.446 884.88L635.488 852.749L585.886 874.963V920.995H678.056Z" fill="white" stroke="black" stroke-width="2"/>
<path d="M585.86 833.263H489.442L475.862 862.499V920.995H585.886L585.86 833.263Z" fill="white" stroke="black" stroke-width="2"/>
<path d="M353.634 859.993H377.783L406.955 795.835L489.442 833.263L475.862 862.499V920.995L363.686 920.994V875.034H353.634V859.993Z" fill="white" stroke="black" stroke-width="2"/>
<path d="M808.822 818.405L791.214 800.858H686.527L718.916 872.683L690.968 885.047L678.056 884.994V920.995L808.822 920.994V818.405Z" fill="white" stroke="black" stroke-width="2"/>
<path d="M683.814 794.842L657.937 743.706L606.634 683.057H482.401L430.595 742.704L406.955 795.835L489.442 833.263L585.86 833.265L597.366 833.35L683.814 794.842Z" fill="white" stroke="black" stroke-width="2"/>
<path d="M594.563 683.057V634.938C561.87 622.407 525.2 624.986 494.472 634.938V683.057H594.563Z" fill="white" stroke="black" stroke-width="2"/>
<path d="M441.157 683.057H494.472V637.945H441.157V683.057Z" fill="white" stroke="black" stroke-width="2"/>
<path d="M469.3 698.141L453.732 683.057H412.488V700.099L444.409 726.799L469.3 698.141Z" fill="white" stroke="black" stroke-width="2"/>
<path d="M412.488 700.099H407.031V755.888H424.729L430.595 742.704L444.409 726.799L412.488 700.099Z" fill="white" stroke="black" stroke-width="2"/>
<path d="M407.031 755.888V795.664L424.729 755.888H407.031Z" fill="white" stroke="black" stroke-width="2"/>
<path d="M606.634 683.057H635.555L618.817 697.459L606.634 683.057Z" fill="white" stroke="black" stroke-width="2"/>
<path d="M702.046 800.858V818.09L695.744 821.297L686.527 800.858H702.046Z" fill="white" stroke="black" stroke-width="2"/>
<path d="M804.474 775.382V722.572H754.327V781.407H798.783L804.474 775.382Z" fill="white" stroke="black" stroke-width="2"/>
<path d="M709.514 781.407H754.327V722.572H709.514V781.407Z" fill="white" stroke="black" stroke-width="2"/>
<path d="M679.995 722.572H732.276V626.877H679.995V722.572Z" fill="white" stroke="black" stroke-width="2"/>
<path d="M732.276 722.572H804.474V626.877H732.276V722.572Z" fill="white" stroke="black" stroke-width="2"/>
<path d="M709.514 781.407V722.572H679.995L709.514 781.407Z" fill="white" stroke="black" stroke-width="2"/>
<path d="M922.906 641.045V574.771H944.13V551.729H825.097V641.045H922.906Z" fill="white" stroke="black" stroke-width="2"/>
<path d="M825.439 731.167V658.421H842.173V641.045H922.906V574.771H944.127V645.464H1003.97L1003.97 731.167H825.439Z" fill="white" stroke="black" stroke-width="2"/>
<path d="M776.135 141.721H835.771V111.184H863.149V1.00005H776.135V141.721Z" fill="white" stroke="black" stroke-width="2"/>
<path d="M765.565 504.125V445.48H746.458V386.836H765.565V329.68H586.503V504.125H765.565Z" fill="white" stroke="black" stroke-width="2"/>
<path d="M746.46 445.47H803.798V386.826H746.46V445.47Z" fill="white" stroke="black" stroke-width="2"/>
<path d="M771.602 558.738V504.125H586.503V199.366H538.236V504.125V558.738H771.602Z" fill="white" stroke="black" stroke-width="2"/>
<path d="M586.503 329.68H683.589V199.366H586.503V329.68Z" fill="white" stroke="black" stroke-width="2"/>
<path d="M683.589 329.68H735.395V199.366H683.589V329.68Z" fill="white" stroke="black" stroke-width="2"/>
<path d="M735.395 329.68H804.301V300.112H735.395V329.68Z" fill="white" stroke="black" stroke-width="2"/>
<path d="M735.395 300.112H804.301V199.366H735.395V300.112Z" fill="white" stroke="black" stroke-width="2"/>
<path d="M83.5646 599.586H140.469V573.358H83.5646V599.586Z" fill="white" stroke="black" stroke-width="2"/>
<path d="M83.5645 573.358H140.469V527.991H83.5645V573.358Z" fill="white" stroke="black" stroke-width="2"/>
<path d="M83.5645 527.991H140.469V484.042H83.5645V527.991Z" fill="white" stroke="black" stroke-width="2"/>
<path d="M83.5646 484.042H140.469V438.441H83.5646V484.042Z" fill="white" stroke="black" stroke-width="2"/>
<path d="M183.161 438.441V385.874H156.46V327.168H1.0174V438.441H156.46H183.161Z" fill="white" stroke="black" stroke-width="2"/>
<path d="M194.706 685.548V645.666H177.092V626.903H139.873V685.548H194.706Z" fill="white" stroke="black" stroke-width="2"/>
<path d="M140.469 599.586H297.312V508.143H140.469V599.586Z" fill="white" stroke="black" stroke-width="2"/>
<path d="M140.469 508.143H229.382V456.397H140.469V508.143Z" fill="white" stroke="black" stroke-width="2"/>
<path d="M140.469 456.397H183.161V438.441H140.469V456.397Z" fill="white" stroke="black" stroke-width="2"/>
<path d="M183.161 456.397H229.382V413.866H183.161V456.397Z" fill="white" stroke="black" stroke-width="2"/>
<path d="M183.161 413.865H236.495V370.271H183.161V413.865Z" fill="white" stroke="black" stroke-width="2"/>
<path d="M297.312 599.586H408.464V508.143H297.312V599.586Z" fill="white" stroke="black" stroke-width="2"/>
<path d="M408.464 599.586H457.755V553.738H408.464V599.586Z" fill="white" stroke="black" stroke-width="2"/>
<path d="M408.464 553.738H457.755V508.143H408.464V553.738Z" fill="white" stroke="black" stroke-width="2"/>
<path d="M408.464 508.143H447.193V456.498H408.464V508.143Z" fill="white" stroke="black" stroke-width="2"/>
<path d="M408.464 456.498H447.193V370.285H408.464V456.498Z" fill="white" stroke="black" stroke-width="2"/>
<path d="M323.462 508.143H408.464V370.285H323.462V508.143Z" fill="white" stroke="black" stroke-width="2"/>
<path d="M323.462 370.285H236.495V413.865H229.382V508.143H323.462V370.285Z" fill="white" stroke="black" stroke-width="2"/>
<path d="M192.187 329.685H285.237V193.85H192.187V329.685Z" fill="white" stroke="black" stroke-width="2"/>
<path d="M231.419 329.685H285.237V233.949H231.419V329.685Z" fill="white" stroke="black" stroke-width="2"/>
<path d="M284.844 329.49H379.844V291.49H284.844V329.49Z" fill="white" stroke="black" stroke-width="2"/>
<path d="M380.298 329.685H448.702V291.591H380.298V329.685Z" fill="white" stroke="black" stroke-width="2"/>
<path d="M448.702 329.685H503.023V222.42H448.702V329.685Z" fill="white" stroke="black" stroke-width="2"/>
<path d="M448.705 278.044V222.408H435.137H415.002V193.846H285.233V278.044H448.705Z" fill="white" stroke="black" stroke-width="2"/>
<path d="M415.003 223.99V193.85H360.682" stroke="black" stroke-width="2"/>
<path d="M435.137 222.42H503.023V193.846H435.137V222.42Z" fill="white" stroke="black" stroke-width="2"/>
<path d="M323.844 1.48975H140.844V149.49H323.844V1.48975Z" fill="white" stroke="black" stroke-width="2"/>
<path d="M1 845.959V920.99H55.875V892.49V859.99V845.959H48.8437H1Z" fill="white" stroke="black" stroke-width="2"/>
<path d="M453.732 683.057L469.3 698.141L482.401 683.057H453.732Z" fill="white" stroke="black" stroke-width="2"/>
</svg>
