<svg width="1024" height="1024" viewBox="0 0 1024 1024" fill="none" xmlns="http://www.w3.org/2000/svg">
<g clip-path="url(#clip0_1205_2247)">
<path d="M201 160.286L303.143 894.571H318.857L351 1006H577.429V1014.57H623.857V1023.86H822.786V669.733H693.987V126H657.429V143.143H473.143V126.714H448.143V111H239.571V160.286H201Z" fill="#EAE1D6" stroke="black" stroke-width="2"/>
<path d="M360.286 111V182.429H389.572V221H461.715V126.714H448.143V111H360.286Z" fill="white" stroke="black" stroke-width="2"/>
<path d="M461.714 166.714H496.714L514.382 197.317V250.286H693.987V126H657.428V143.143H473.142V126.714H461.714V166.714Z" fill="white" stroke="black" stroke-width="2"/>
<path d="M391.714 254.571H454.571L653.9 307.981V487.428L475.774 535.157H391.714V254.571Z" fill="white" stroke="black" stroke-width="2"/>
<path d="M602.428 250.286V294.19L653.9 307.981V487.428L531.863 520.128V553.857H577.428V595.286H603.143V531.714H693.987V250.286H602.428Z" fill="white" stroke="black" stroke-width="2"/>
<path d="M531.864 553.857H457.429V535.158H475.774L531.864 520.128V553.857Z" fill="white" stroke="black" stroke-width="2"/>
<path d="M358.143 518.857V446V518.857Z" fill="white"/>
<path d="M358.143 518.857V446" stroke="black" stroke-width="2"/>
<path d="M358.143 456.357H391.714H358.143Z" fill="white"/>
<path d="M358.143 456.357H391.714" stroke="black" stroke-width="2"/>
<path d="M358.143 415.643V251.357V415.643Z" fill="white"/>
<path d="M358.143 415.643V251.357" stroke="black" stroke-width="2"/>
<path d="M822.786 669.733H693.987V846H822.786V669.733Z" fill="white" stroke="black" stroke-width="2"/>
<path d="M693.987 678.143H577.429V778.143H693.987V678.143Z" fill="white" stroke="black" stroke-width="2"/>
<path d="M643.143 579.571H603.143V637.786H643.143V579.571Z" fill="white" stroke="black" stroke-width="2"/>
<path d="M693.987 637.786H603.143V678.143H693.987V637.786Z" fill="white" stroke="black" stroke-width="2"/>
<path d="M693.987 531.714H643.143V637.786H693.987V531.714Z" fill="white" stroke="black" stroke-width="2"/>
<path d="M643.143 531.714H603.143V579.572H643.143V531.714Z" fill="white" stroke="black" stroke-width="2"/>
<path d="M577.428 553.857H537.413V595.286H577.428V553.857Z" fill="white" stroke="black" stroke-width="2"/>
<path d="M537.414 553.857H499.533V595.286H537.414V553.857Z" fill="white" stroke="black" stroke-width="2"/>
<path d="M499.533 553.857H457.429V595.286H499.533V553.857Z" fill="white" stroke="black" stroke-width="2"/>
<path d="M499.214 638.857H457.429V678.143H499.214V638.857Z" fill="white" stroke="black" stroke-width="2"/>
<path d="M538.142 638.857H499.214V678.143H538.142V638.857Z" fill="white" stroke="black" stroke-width="2"/>
<path d="M577.428 638.857H538.143V678.143H577.428V638.857Z" fill="white" stroke="black" stroke-width="2"/>
<path d="M577.429 678.143H457.429V738.424H577.429V678.143Z" fill="white" stroke="black" stroke-width="2"/>
<path d="M525.554 738.429V786.929H518.21V823.522H550.054V845.997H570.991V823.522H577.429V786.929V738.429H525.554Z" fill="white" stroke="black" stroke-width="2"/>
<path d="M585.901 778.143H577.429V823.523H585.901V778.143Z" fill="white" stroke="black" stroke-width="2"/>
<path d="M613.174 778.143H585.9V823.523H613.174V778.143Z" fill="white" stroke="black" stroke-width="2"/>
<path d="M613.179 778.147V823.522V845.997H637.429V823.522H693.991V778.147H613.179Z" fill="white" stroke="black" stroke-width="2"/>
<path d="M693.987 823.522H667.976V846H693.987V823.522Z" fill="white" stroke="black" stroke-width="2"/>
<path d="M667.976 823.522H637.429V846H667.976V823.522Z" fill="white" stroke="black" stroke-width="2"/>
<path d="M748.866 845.991V874.929H701.71H605.991V941.366H675.647V960.647H701.71V941.366V920.647H772.085V1023.87H822.772V882.085V845.991H748.866Z" fill="white" stroke="black" stroke-width="2"/>
<path d="M701.71 920.647V960.647H675.647V941.366H605.991V922.429H577.429V1014.58H605.991H623.866V1023.87H701.71H772.085V920.647H701.71Z" fill="white" stroke="black" stroke-width="2"/>
<path d="M605.991 888.143H577.429V922.429H605.991V888.143Z" fill="white" stroke="black" stroke-width="2"/>
<path d="M494.272 805.46V823.522V845.991H550.054V823.522H511.522V805.46H494.272Z" fill="white" stroke="black" stroke-width="2"/>
<path d="M440.679 788.179V862.647H494.272V805.46H511.522V788.179H494.272H440.679Z" fill="white" stroke="black" stroke-width="2"/>
<path d="M511.522 738.423H457.429V788.178H511.522V738.423Z" fill="white" stroke="black" stroke-width="2"/>
<path d="M480.088 768.223H457.429V788.179H480.088V768.223Z" fill="white" stroke="black" stroke-width="2"/>
<path d="M267.66 639.49H353.5V807.786" stroke="black" stroke-width="2"/>
<path d="M311.714 639.49V807.786V639.49Z" fill="white"/>
<path d="M311.714 639.49V807.786" stroke="black" stroke-width="2"/>
<path d="M283.902 756.251H311.715H283.902Z" fill="white"/>
<path d="M283.902 756.251H311.715" stroke="black" stroke-width="2"/>
<path d="M318.857 894.572H358.143L349.929 867.429H323.857" stroke="black" stroke-width="2"/>
<path d="M358.143 894.571L388.857 1006L358.143 894.571Z" fill="white"/>
<path d="M358.143 894.571L388.857 1006" stroke="black" stroke-width="2"/>
<path d="M250.826 518.475H291.715V340.643H259.572L274.215 438.5" stroke="black" stroke-width="2"/>
<path d="M264.571 340.643L246.714 210.643L264.571 340.643Z" fill="white"/>
<path d="M264.571 340.643L246.714 210.643" stroke="black" stroke-width="2"/>
<path d="M272.786 111H239.571V159.571H272.786V111Z" fill="white" stroke="black" stroke-width="2"/>
<path d="M693.987 174.929H566V250.286H693.987V174.929Z" fill="white" stroke="black" stroke-width="2"/>
<path d="M524.929 207.428H553.5C553.5 207.428 557.786 186.357 544.214 171.357" fill="white"/>
<path d="M524.929 207.428H553.5C553.5 207.428 557.786 186.357 544.214 171.357" stroke="black" stroke-width="2"/>
<path d="M499.214 159.214C527.071 143.143 543.857 155.643 554.928 168.857L499.214 159.214Z" fill="white"/>
<path d="M499.214 159.214C527.071 143.143 543.857 155.643 554.928 168.857" stroke="black" stroke-width="2"/>
<path d="M389.571 182.429V142.938V182.429Z" fill="white"/>
<path d="M389.571 182.429V142.938" stroke="black" stroke-width="2"/>
</g>
<defs>
<clipPath id="clip0_1205_2247">
<rect width="1024" height="1024" fill="white"/>
</clipPath>
</defs>
</svg>
